<?xml version="1.0" encoding="UTF-8" standalone="no"?>
<svg
   xmlns:dc="http://purl.org/dc/elements/1.1/"
   xmlns:cc="http://creativecommons.org/ns#"
   xmlns:rdf="http://www.w3.org/1999/02/22-rdf-syntax-ns#"
   xmlns:svg="http://www.w3.org/2000/svg"
   xmlns="http://www.w3.org/2000/svg"
   xmlns:sodipodi="http://sodipodi.sourceforge.net/DTD/sodipodi-0.dtd"
   xmlns:inkscape="http://www.inkscape.org/namespaces/inkscape"
   version="1.1"
   id="svg833"
   width="200"
   height="200"
   viewBox="0 0 200 200"
   sodipodi:docname="LOGO.svg"
   inkscape:version="1.0.2-2 (e86c870879, 2021-01-15)">
  <style
     id="style2557">#path848, #path1218, #path1220, #path1222, #path1224, #path1226, #path1228, #path1238, #path1240, #path1242, #path1244, #path1246, #path1248, #path1250, #path1252, #path1256, #path1270, #path1272, #path1276, #path1280, #path1282, #path846, #path1268, #path1310, #path1312, #path1258, #path1254, #path1274, #path1308, #path1278, #path1322, #path1324 {  }
</style>
  <metadata
     id="metadata839">
    <rdf:RDF>
      <cc:Work
         rdf:about="">
        <dc:format>image/svg+xml</dc:format>
        <dc:type
           rdf:resource="http://purl.org/dc/dcmitype/StillImage" />
        <dc:title></dc:title>
      </cc:Work>
    </rdf:RDF>
  </metadata>
  <defs
     id="defs837" />
  <sodipodi:namedview
     pagecolor="#ffffff"
     bordercolor="#666666"
     borderopacity="1"
     objecttolerance="10"
     gridtolerance="10"
     guidetolerance="10"
     inkscape:pageopacity="0"
     inkscape:pageshadow="2"
     inkscape:window-width="1920"
     inkscape:window-height="1017"
     id="namedview835"
     showgrid="false"
     inkscape:zoom="1.4142136"
     inkscape:cx="302.72132"
     inkscape:cy="183.26029"
     inkscape:window-x="-8"
     inkscape:window-y="-8"
     inkscape:window-maximized="1"
     inkscape:current-layer="layer1"
     showguides="true"
     inkscape:guide-bbox="true">
    <sodipodi:guide
       position="144.7694,575"
       orientation="0,-1"
       id="guide3255" />
    <sodipodi:guide
       position="121.15453,375.81373"
       orientation="0,-1"
       id="guide3257" />
    <sodipodi:guide
       position="99.702056,118.68272"
       orientation="1,0"
       id="guide3259" />
    <sodipodi:guide
       position="371.96155,465.06164"
       orientation="1,0"
       id="guide3261" />
  </sodipodi:namedview>
  <g
     inkscape:groupmode="layer"
     id="layer1"
     inkscape:label="Image 1"
     style="display:inline">
    <path
       id="path848"
       style="fill:#000000;fill-opacity:0.95612;stroke:none;stroke-width:0.181788;stroke-opacity:1"
       d="M 99.702056,0 93.350495,3.08593 V 9.4375 l 6.169921,4.17578 2.179684,-1.63477 22.97266,12.49023 -1.91992,-0.6914 -35.621105,9.71484 -11.75,-6.6289 -0.36523,-3.89063 20.14844,-12.08203 -20.2168,11.34766 -0.11133,-1.1836 -5.08203,-3.8125 -6.35351,3.26758 v 7.07813 l 0.93945,0.60351 -41.8457,23.48633 -2.72266,-2.17773 -6.89648,3.44726 0.18164,6.89844 3.44726,1.99609 1.27149,41.3828 -4.53711,2.9043 -0.18164,7.62305 4.71875,2.90429 -0.18164,23.41211 -4.71875,2.35938 0.18164,7.80469 5.44531,3.8125 6.5332,-3.99414 0.18164,-3.26563 15.05469,-0.48242 -4.75,11.25195 -11.14258,-5.72851 66.24805,36.21093 0.72656,5.8086 8.892585,3.99219 7.44141,-4.90039 0.18164,-3.63086 65.52343,-37.9336 -65.88672,32.85156 -7.623044,-4.5371 -10.708991,5.44531 -7.14648,-32.17774 3.13477,-3.35351 0.0547,-1.14649 0.17578,-0.42773 0.10157,-3.51563 c 0.008,-0.14447 0.004,-0.1164 0.0117,-0.24804 l 12.36915,-1.09375 2.007811,36.51758 0.929694,-36.7754 4.8789,-0.43164 -4.87109,0.10352 0.52344,-20.72852 16.14453,6.83008 -16.13282,-7.26953 0.34375,-13.60351 8.16602,-4.35547 v -7.62304 l 0.80078,-0.5 16.44336,78.72655 4.35547,-1.99609 -17.03906,-69.32617 -2.07813,-8.45507 30.76367,-19.22852 -0.0312,2.08399 9.07618,5.62695 -2.17774,20.6914 4.71875,-20.6914 7.07813,-4.90039 8.89453,5.08203 -6.89844,-7.62305 -0.18164,-9.98242 -1.63281,-0.9082 11.97851,-7.98633 -12.52343,7.07813 -1.9961,-1.08789 3.44922,-13.97657 3.42188,-1.36914 8.19335,4.45508 -7.98632,-4.94727 v -6.125 l -5.08203,-3.81054 -5.1211,3.61523 -50.96289,-31.5664 -0.18164,-5.62696 z m 74.779294,51.54687 v 7.44141 l 3.44922,2.54101 2.63086,44.01366 1.36133,-44.55858 4.17578,-1.63281 -0.72656,-7.07813 -5.99024,-3.63086 z m -60.05468,51.1914 27.38476,11.24609 0.18164,3.08398 4.17383,2.54102 -5.98828,37.75391 7.44141,-36.66407 5.98828,-3.63086 0.11133,-3.88281 20.21679,0.43555 0.18164,2.17773 4.90039,3.44922 0.84961,22.37891 -2.30078,-1.50781 -3.08594,1.8164 -21.05468,-21.96289 19.78515,22.32617 -2.35937,1.63282 0.17969,6.35351 2.36132,1.08789 3.44727,2.72266 5.80859,-3.08594 0.18164,-7.44141 -2.93359,-1.92187 1.11914,-22.58008 4.90039,-2.9043 v -6.53515 l -3.65234,-3.85938 -3.78906,-0.13281 -3.99415,3.08594 -0.90625,3.08594 -19.85351,1.29882 0.0684,-2.38867 -4.71875,-3.8125 -7.25977,3.08594 -0.18164,2.17773 z m 12.23437,-77.18945 11.95899,6.50196 -1.24414,-0.53321 -12.83399,18.48047 -3.84961,-1.2832 -3.41797,1.7832 -29.181645,-16.46289 z m -53.275395,2.58399 11.34961,6.01367 -9.74219,2.65625 -1.24609,-1.22852 1.01562,1.29297 -1.92187,0.52344 1.98828,-0.4375 9.625,12.25781 -1.26758,0.52149 v 6.5332 l 2.72266,1.99609 2.35937,2.17969 6.53321,-2.9043 0.31054,-3.02148 0.0527,0.48047 7.064455,-0.0644 4.25,20.34765 -4.26953,6.29102 4.39453,-5.69141 2.92969,14.02539 -0.57422,0.30274 -9.439454,-5.44532 -10.707031,5.99024 v 8.54296 l -10.17969,11.88086 -6.69922,-3.01954 -5.44727,-23.93944 2.52149,22.62109 -9.96875,-4.49219 7.44726,-18.1289 -7.62109,18.05077 -18.38672,-8.2871 13.66602,-11.57812 -14.70508,11.10937 -19.39453,-8.74023 0.99804,-22.92969 3.99219,-2.35937 v -6.53516 l 40.25781,-24.14258 3.18946,2.05078 z m -6.89844,56.08398 3.44922,-1.99609 2.17774,-1.08985 -0.18164,-8.71093 13.97656,-14.15821 -15.24609,11.61719 -7.08008,-3.44922 -6.85157,-24.0039 5.4668,24.80468 -6.78125,3.91797 -0.72656,9.25781 8.16797,5.26368 z M 55.416895,71.14843 25.286035,56.6289 55.053615,74.59765 Z m 16.69727,9.98242 -2.2461,1.4668 18.73828,11.55078 0.20704,-3.39648 z m 68.703125,-47.88476 14.42188,7.83984 -0.35938,5.92383 2.9043,1.99609 -1.08985,12.3418 -3.26757,-1.63281 -10.16407,5.44531 -0.13281,8.80078 -0.23047,-1.72265 -31.82812,16.85156 -3.54102,-14.4082 10.33789,-13.38868 3.85157,0.76954 4.61914,-3.33594 V 56.1914 l 16.92382,8.96875 -16.92382,-9.54883 v -4.33008 z m -55.246095,1.34375 30.855475,16.34961 -1.63867,0.85547 0.10351,3.01562 -12.46875,-0.9082 -2.720704,-11.06836 2.304684,11.03906 -6.779295,-0.49414 0.30078,-2.92187 -6.17188,-3.26563 -2.70117,1.11133 -11.56836,-11.40625 z m 29.322265,20.22461 0.15235,4.42383 1.79492,0.77148 -9.48242,13.97461 -4.6836,-19.05664 z m -94.962895,32.60351 17.67774,7.47852 -14.38672,10.86913 -3.99414,-2.17773 z m 18.8711,7.98243 19.48437,8.24217 -17.24219,40.83789 -4.60546,0.19336 c -2.53301,0.0866 -7.68523,0.26208 -8.35743,0.28516 -1.37988,0.0474 -2.5009,0.0481 -3.06836,0.0117 l -0.33984,-2.54297 -0.42969,-0.24219 -0.002,-0.0195 -2.11719,-1.19922 -1.62695,-0.91992 -1.45117,-23.0293 5.62695,-3.6289 0.18164,-6.17188 z m 50.47851,7.44725 6.61133,4.23828 0.66992,12.16797 -15.96679,-7.19531 z m -30.80468,0.875 10.68945,4.52149 1.3789,12.37304 -19.66601,22.95117 19.875,-21.07421 1.74219,15.63281 -2.03711,0.71679 0.0449,4.40235 -28.75781,1.20508 z m 13.77539,5.82617 5.70703,2.41407 -4.07618,4.75585 z m 7.65625,3.23828 16.68554,7.0586 1.25391,22.80273 -12.14453,0.25781 -0.13282,0.0957 c 0.0513,-1.01422 0.0673,-1.66062 -0.0117,-1.75977 l 0.0117,-0.26562 -7.26171,-4.81055 -3.97461,-17.46875 z m -9.31446,32.54493 0.92383,4.41406 4.52149,3.57226 8.46484,29.41211 -48.28711,-24.82031 4.77734,-11.63086 z" />
  </g>
</svg>
